<svg width="106" height="40" viewBox="0 0 106 40" fill="none" xmlns="http://www.w3.org/2000/svg">
<g clip-path="url(#clip0_2094_73)">
<path d="M20.8867 39.4308H49.6962V24.7663L20.8867 10.7277V39.4308ZM45.484 26.3873L48.5509 27.6172V30.0112L45.484 29.0755V26.3873ZM45.484 32.69L48.5509 33.3221V35.5628L45.484 35.2248V32.69ZM39.7227 24.0747L44.9458 26.1714V28.9096L39.7227 27.3136V24.0747ZM39.7227 31.5008L44.9458 32.5773V35.1622L39.7227 34.5833V31.5008ZM32.2465 21.0767L38.9154 23.7523V27.0664L32.2465 25.0292V21.0767ZM32.2465 29.958L38.9154 31.3318V34.4925L32.2465 33.754V29.958ZM21.9726 16.9584L31.1669 20.6448V24.6974L21.9726 21.8872V16.9584ZM21.9726 27.8394L31.1669 29.7358V33.6351L21.9726 32.6149V27.8394Z" fill="white"/>
<path d="M24.9572 10.9624L24.9478 10.9154L24.8007 9.97349L27.7142 8.13338L27.6516 12.3049L33.8103 15.3749L33.6664 14.1294L35.4971 12.9996L35.447 16.1948L40.2601 18.5919L39.34 13.926L36.3984 11.413L33.4818 13.2156L32.9779 9.90151L28.7094 6.35274L24.6411 8.92513L23.9714 4.44066L18.8423 0.0125177V0L13.7945 3.51435L13.6255 11.1627L0 18.5481V39.4308H19.2397V8.11774L24.9478 10.9561L24.9572 10.9624ZM17.5092 37.7002H1.7337V19.5808L17.506 11.0312V37.7002H17.5092ZM17.6249 8.99398L14.7177 10.5712L14.8617 4.0839L17.7345 2.08733L17.6249 8.99398Z" fill="white"/>
<path d="M3.70149 30.5524C3.70149 30.712 4.35867 31.2002 4.48384 31.316C4.69665 31.6446 4.73733 31.9199 4.79053 32.2892C5.07531 32.6084 5.44458 32.8275 5.80446 33.0528C6.13305 33.3783 6.28327 33.8258 6.55866 34.195C7.24713 34.5549 7.94499 34.8741 8.06078 34.9586C8.47387 35.7942 9.30004 35.8881 9.70373 34.9899C9.65053 34.3014 9.37514 34.0573 8.67728 34.0573C8.72109 34.2263 8.75239 34.3014 8.73048 34.4704C8.2861 34.048 8.22038 33.3908 7.8292 32.9996C7.66021 32.937 7.49123 32.8744 7.33162 32.8087C7.22522 32.6491 7.11882 32.4895 7.02494 32.3424C7.29094 32.3424 7.60701 32.5114 7.86363 32.6084C8.76177 32.7993 8.78368 32.7774 9.26248 33.4972C9.84456 33.7507 9.88837 34.1512 10.2357 34.5768C10.3421 34.6519 10.4579 34.727 10.5737 34.8115C10.7114 35.1495 10.8585 35.4906 11.0087 35.8286C11.4531 35.8599 11.5689 35.838 11.9632 35.6158C12.1009 36.0289 12.5327 35.9976 12.927 35.9006C12.9896 36.0602 12.9896 36.0602 13.0741 36.5891C13.4246 36.5891 13.772 36.5891 14.1319 36.5891C14.1851 36.4827 14.5137 36.1979 14.642 36.1979C14.7046 35.7754 13.9441 35.0212 13.8064 34.4829C13.5936 34.145 13.3839 33.8039 13.168 33.4784C12.9583 32.5458 12.9583 32.5458 12.8175 32.1421C12.5859 31.8135 12.3731 31.5601 12.2573 31.1689C12.1416 30.2582 11.9068 29.4414 11.475 28.6278C11.4656 28.5746 11.4656 28.5214 11.4656 28.4682C11.4562 28.1177 11.4437 27.7703 11.4437 27.4292C11.3905 27.0286 11.3248 26.625 11.2309 26.2213C11.1714 26.0961 11.0807 25.949 11.0244 25.8082C10.9899 25.7237 10.9649 25.6392 10.9649 25.5672C11.0494 25.5359 11.1339 25.5046 11.2309 25.4827C12.3325 25.5359 13.2337 25.9365 14.2821 25.4733C14.0912 25.4107 14.0912 25.4107 13.9973 25.3356C14.135 24.9006 15.4149 25.104 15.5652 24.5752C15.3962 24.5126 15.3962 24.5126 15.3211 24.4469C15.3304 24.4062 15.7028 24.3217 16.1159 24.1715C16.2223 24.0432 16.3506 23.9055 16.3913 23.7365C16.2974 23.7271 16.2129 23.7271 16.1253 23.7271C14.4292 23.7271 12.5891 23.4736 10.9367 23.8961C10.533 24.0964 10.1325 24.2967 9.72877 24.5095C8.99961 24.306 8.6898 24.3311 7.93873 24.425C7.91683 23.6833 7.85424 22.9416 7.94812 22.2093C8.2861 22.1999 9.05907 22.178 9.21867 21.7869C9.57855 21.7117 9.57856 21.7117 10.2451 21.6679C10.6801 21.9558 11.0932 21.5302 11.0087 21.0733C10.7552 21.064 10.4986 21.0514 10.2545 21.0514C10.2451 20.9982 10.2326 20.945 10.2326 20.8918C10.5174 20.7854 10.8147 20.7854 11.112 20.776C11.5783 20.5977 11.4218 20.1095 10.9211 20.0344L10.6269 20.1376C10.533 20.1721 10.3202 20.0312 10.411 19.8967C10.4172 19.8904 10.918 19.9718 10.9211 19.9718L10.9492 19.8904L10.9148 19.7402C10.8992 19.6776 10.8335 19.6338 10.7771 19.5743C9.97286 19.3522 9.04029 19.7027 8.25794 19.4179C8.00445 19.3835 7.76036 19.3553 7.51626 19.3334C7.54756 19.1425 7.56946 19.1206 7.67586 18.9516C7.58198 18.9422 7.49748 18.986 6.7339 19.1206C6.74329 18.8671 6.75581 18.623 6.77459 18.3789C6.74329 18.3789 6.72139 18.3789 6.69948 18.3789C6.446 18.5698 6.446 18.5698 6.17061 18.8546C5.86392 19.7246 5.30375 20.0093 4.54017 20.5069C4.54017 20.6133 4.59337 20.6978 4.59337 20.8887C4.415 21.3456 3.92681 21.6429 3.73591 22.1061C4.29608 22.3282 3.98939 22.6162 3.72339 23.0292C3.65142 24.7974 3.65142 24.7974 3.5857 25.4326C3.46991 25.9427 3.46991 25.9427 3.182 26.747C3.11628 27.423 2.84715 30.2801 3.70149 30.5524ZM8.42067 20.025C8.37998 20.0657 8.34556 20.0876 8.14215 20.0938C8.02636 20.0688 8.00445 20.0438 7.97942 19.9499C8.21412 19.759 8.36747 19.7089 8.42067 20.025ZM7.25026 33.178C7.25026 33.2218 7.25026 33.2625 7.25026 33.3157C7.12195 33.347 7.00616 33.3783 6.89038 33.4096C6.712 33.0497 6.50858 32.7211 6.2864 32.3925C5.89209 32.0013 5.36321 31.8323 5.75752 31.3128C5.8514 31.3128 5.94842 31.3128 6.0423 31.3128C6.61499 31.8104 6.47729 32.743 7.25026 33.178ZM12.0164 34.6081C11.7316 34.4266 11.4468 34.2451 11.1714 34.0761C11.1182 33.6756 10.6926 33.4315 10.4172 33.1561C10.2576 32.8494 10.1106 32.5427 9.96347 32.2454C9.49719 31.704 8.78681 31.7791 9.45338 31.0249C9.73816 30.9091 9.73816 30.9091 9.90714 30.8778C10.1419 31.438 10.3296 31.6414 10.8616 31.9669C11.4437 32.5803 11.3154 33.4189 11.9006 34.001C11.9319 34.0886 12.1541 34.5643 12.0164 34.6081ZM12.7581 34.3859C12.8113 34.3859 12.8738 34.3859 12.9364 34.3859C12.9677 34.461 13.0115 34.5361 13.0522 34.6081C13.1273 34.7333 13.4966 35.2966 13.4465 35.475C13.3495 35.5376 13.2556 35.6033 13.168 35.6784C13.0209 35.5282 13.0209 34.8835 12.999 34.6613C12.8926 34.6519 12.7987 34.6394 12.7049 34.63C12.7142 34.4704 12.7142 34.4704 12.7581 34.3859ZM10.8522 30.4961C11.5313 30.4961 11.6471 30.9936 11.7942 31.535C12.0602 32.1171 12.3888 32.6585 12.6829 33.2093C12.6736 33.2938 12.6736 33.3876 12.6736 33.4847C12.5985 33.5066 12.5233 33.5253 12.4514 33.5472C12.0821 33.3689 12.1572 33.009 12.1572 32.6773C11.8818 32.1797 11.7034 31.7259 11.162 31.5037C10.9899 31.2409 10.6175 30.8059 10.8522 30.4961ZM7.92622 24.8631C8.45196 24.8662 8.88069 24.9945 9.33759 25.2449C9.39079 25.1385 9.37827 25.0227 9.36888 24.885C9.91653 25.0415 10.2795 25.4107 10.4955 25.8739C10.8303 26.5843 10.8272 27.5168 10.6519 28.2335C10.4391 28.5934 10.048 28.3055 10.0135 28.8594C10.4266 28.8594 10.5236 29.0816 10.7239 29.4101C10.7239 29.601 10.4579 29.6855 10.3015 29.7043C10.0355 29.3444 9.79136 29.0064 9.34698 29.3225C9.31255 29.3131 9.28439 29.3131 9.25309 29.3131C9.19989 28.9439 9.52848 29.1035 9.67557 28.8688C9.55978 27.9894 8.61782 27.0662 8.08895 26.4215C7.94186 25.8927 7.93247 25.4139 7.89805 24.8631C7.90744 24.8631 7.9137 24.8631 7.92622 24.8631ZM7.52565 27.9237C8.29862 27.8799 8.6898 27.8486 8.93389 28.6027C8.88069 28.8688 8.63973 29.1003 8.46761 29.3006C8.29862 29.7012 8.27671 29.7982 7.8292 29.8389C7.776 29.7106 7.74471 29.6887 7.776 29.5541C8.40189 29.1723 8.11398 28.7467 7.57572 28.4619C7.52252 28.3461 7.46932 28.2397 7.42551 28.1333C7.46306 28.0645 7.49435 27.9894 7.52565 27.9237ZM7.04685 22.1436C7.19706 22.1655 7.35353 22.1843 7.45993 22.2907C7.39734 22.8227 7.39734 22.8227 7.33475 24.1214C7.32537 24.6002 7.31285 25.0853 7.31285 25.5735C6.85908 24.547 6.96235 23.242 7.04685 22.1436ZM5.22865 28.7404C5.6386 29.0377 6.01101 29.3225 6.29891 29.7356C6.58369 29.8733 6.82779 29.7763 7.11256 29.9891C7.37857 30.011 7.37857 30.011 7.44115 30.0423C7.44115 30.0767 7.44115 30.1049 7.45054 30.1362C7.27217 30.2645 7.14386 30.3396 6.94045 30.4241C6.55866 30.3302 6.17999 30.2739 5.78569 30.2739C5.08782 29.9891 4.81243 29.8514 4.73733 29.0753C4.90006 28.9188 5.01585 28.8343 5.22865 28.7404Z" fill="white"/>
<path d="M54.9055 16.0352H55.1997L56.1416 17.4779H57.1837L55.957 15.6346L57.2182 13.9729H56.1761L55.184 15.3092H54.9055V13.9729H54.0449V17.4779H54.9055V16.0352Z" fill="white"/>
<path d="M58.4554 16.7612H59.6884L59.9293 17.4779H60.8118L59.6039 13.9729H58.6181L57.4102 17.4779H58.2207L58.4554 16.7612ZM59.0781 14.9086L59.485 16.1353H58.6682L59.0781 14.9086Z" fill="white"/>
<path d="M62.1255 14.9681L62.9485 17.4779H63.6526L64.5007 14.9587L64.6008 17.4779H65.4646L65.2956 13.9729H64.1283L63.3522 16.2762L62.623 13.9729H61.4307L61.2461 17.4779H62.0065L62.1255 14.9681Z" fill="white"/>
<path d="M67.6794 17.553C68.3648 17.553 68.8561 17.2338 69.0752 17.0679L68.7403 16.4608C68.4399 16.6517 68.1238 16.8113 67.7984 16.8113C67.2538 16.8113 66.8407 16.4514 66.8407 15.7285C66.8407 15.0369 67.2319 14.6176 67.7921 14.6176C68.0863 14.6176 68.3585 14.6739 68.6496 14.7928L68.9249 14.1356C68.5838 13.9791 68.1582 13.8947 67.6826 13.8947C66.5622 13.8947 65.9238 14.6363 65.9238 15.7285C65.927 16.7612 66.4809 17.553 67.6794 17.553Z" fill="white"/>
<path d="M70.4778 16.0352H70.7751L71.7139 17.4779H72.756L71.5293 15.6346L72.7904 13.9729H71.7515L70.7594 15.3092H70.4778V13.9729H69.6172V17.4779H70.4778V16.0352Z" fill="white"/>
<path d="M75.6994 15.2401V17.4776H76.5663V13.9727H75.5993L74.2192 16.2133V13.9727H73.3555V17.4776H74.3193L75.6994 15.2401Z" fill="white"/>
<path d="M80.3427 13.3751L80.1674 12.8087C80.0172 12.8744 79.5415 13.0653 79.0721 13.0653C78.6121 13.0653 78.1458 12.8838 77.9799 12.8087L77.8047 13.3751C77.9299 13.4252 78.465 13.6349 79.0721 13.6349C79.6792 13.638 80.2144 13.4252 80.3427 13.3751Z" fill="white"/>
<path d="M79.8127 15.2401V17.4776H80.6795V13.9727H79.7125L78.3293 16.2133V13.9727H77.4688V17.4776H78.4295L79.8127 15.2401Z" fill="white"/>
<path d="M56.3857 20.6729V22.9105H57.2526V19.4055H56.2856L54.9055 21.6493V19.4055H54.0449V22.9105H55.0057L56.3857 20.6729Z" fill="white"/>
<path d="M61.2837 19.4053H60.42V20.7447H59.018V19.4053H58.1543V22.9102H59.018V21.4707H60.42V22.9102H61.2837V19.4053Z" fill="white"/>
<path d="M65.0522 23.7959H65.6781V22.2343H65.2274V19.4053H62.8084C62.7583 20.9919 62.702 21.4832 62.2075 22.2343H61.8633V23.7959H62.4892L62.6237 22.9102H64.9176L65.0522 23.7959ZM64.3637 22.2343H63.0368C63.3936 21.7743 63.5062 21.0482 63.5532 20.0812H64.3637V22.2343Z" fill="white"/>
<path d="M67.7217 22.9102L69.3114 19.4053H68.4727L67.7154 21.0889L66.8642 19.4053H65.9316L67.2898 22.0496L66.8986 22.9102H67.7217Z" fill="white"/>
<path d="M71.0623 22.9856C71.7476 22.9856 72.2389 22.6664 72.458 22.5006L72.1231 21.8935C71.8227 22.0844 71.5066 22.244 71.1812 22.244C70.6366 22.244 70.2236 21.8841 70.2236 21.1612C70.2236 20.4696 70.6147 20.0502 71.1749 20.0502C71.4691 20.0502 71.7413 20.1066 72.0324 20.2255L72.3078 19.5683C71.9667 19.4118 71.5411 19.3273 71.0654 19.3273C69.945 19.3273 69.3066 20.069 69.3066 21.1612C69.3129 22.197 69.8668 22.9856 71.0623 22.9856Z" fill="white"/>
<path d="M75.6175 19.4053H72.6289V20.1313H73.696V22.9102H74.5566V20.1313H75.6175V19.4053Z" fill="white"/>
<path d="M76.1426 19.4055V22.9105H77.0094V21.7025H77.5101C78.1673 21.7025 78.7557 21.3458 78.7557 20.5509C78.7557 19.8186 78.1611 19.4055 77.5039 19.4055H76.1426ZM77.8763 20.554C77.8763 20.8983 77.676 21.1048 77.2817 21.1048H77.0126V20.0345H77.2817C77.676 20.0314 77.8763 20.2129 77.8763 20.554Z" fill="white"/>
<path d="M80.2043 21.6491V19.4053H79.3438V22.9102H80.3045L81.6846 20.6727V22.9102H82.5514V19.4053H81.5844L80.2043 21.6491Z" fill="white"/>
<path d="M84.1253 22.197H85.3583L85.5993 22.9137H86.4818L85.2738 19.4087H84.288L83.0801 22.9137H83.8906L84.1253 22.197ZM84.7449 20.3444L85.1518 21.5711H84.335L84.7449 20.3444Z" fill="white"/>
<path d="M86.5195 22.3751L86.7261 23.0166C87.8089 22.9008 88.1844 22.4909 88.2689 20.1313H89.1952V22.9102H90.062V19.4053H87.4803C87.3958 21.84 87.28 22.2562 86.5195 22.3751Z" fill="white"/>
<path d="M93.5232 21.7899C93.5232 20.995 92.9067 20.6633 92.2527 20.6633H91.777V19.4053H90.9102V22.9102H92.2464C92.9036 22.9102 93.5232 22.5191 93.5232 21.7899ZM91.777 22.3094V21.2642H92.0712C92.4154 21.2642 92.6407 21.4457 92.6407 21.7899C92.6407 22.1341 92.4154 22.3094 92.0712 22.3094H91.777Z" fill="white"/>
<path d="M96.3368 20.7447H94.9348V19.4053H94.0742V22.9102H94.9348V21.4707H96.3368V22.9102H97.2036V19.4053H96.3368V20.7447Z" fill="white"/>
<path d="M101.89 19.4053H101.023V22.9102H101.89V19.4053Z" fill="white"/>
<path d="M100.692 21.7899C100.692 20.995 100.075 20.6633 99.421 20.6633H98.9704V19.4053H98.1035V22.9102H99.4147C100.072 22.9102 100.692 22.5191 100.692 21.7899ZM98.9704 22.3094V21.2642H99.2395C99.5837 21.2642 99.8091 21.4457 99.8091 21.7899C99.8091 22.1341 99.5837 22.3094 99.2395 22.3094H98.9704Z" fill="white"/>
<path d="M105.665 18.8111L105.49 18.2446C105.339 18.3103 104.864 18.5012 104.394 18.5012C103.934 18.5012 103.468 18.3197 103.302 18.2446L103.127 18.8111C103.252 18.8611 103.787 19.0708 104.394 19.0708C104.998 19.0708 105.537 18.8611 105.665 18.8111Z" fill="white"/>
<path d="M105.037 19.4053L103.654 21.6491V19.4053H102.793V22.9102H103.754L105.137 20.6727V22.9102H106.001V19.4053H105.037Z" fill="white"/>
<path d="M54.9055 25.5674H56.3075V28.3463H57.1744V24.8414H54.0449V28.3463H54.9055V25.5674Z" fill="white"/>
<path d="M58.9052 24.8413L57.6973 28.3463H58.5078L58.7425 27.6296H59.9755L60.2165 28.3463H61.099L59.891 24.8413H58.9052ZM58.9553 27.0037L59.3653 25.777L59.7721 27.0037H58.9553Z" fill="white"/>
<path d="M61.625 24.8413V28.3463H62.4919V27.1383H62.9926C63.6497 27.1383 64.2381 26.7816 64.2381 25.9867C64.2381 25.2544 63.6435 24.8413 62.9863 24.8413H61.625ZM63.3587 25.9867C63.3587 26.3309 63.1584 26.5375 62.7641 26.5375H62.495V25.4672H62.7641C63.1584 25.4672 63.3587 25.6487 63.3587 25.9867Z" fill="white"/>
<path d="M66.9229 28.3463H67.965L66.7383 26.503L67.9994 24.8413H66.9573L65.9684 26.1776H65.6868V24.8413H64.8262V28.3463H65.6868V26.9036H65.9809L66.9229 28.3463Z" fill="white"/>
<path d="M60.9175 30.7654L59.6939 35.1466L58.5047 30.7654H54.7994L54.377 38.7705H56.8116L57.0182 34.0482L58.3795 38.7705H60.6546L62.0284 34.0012L62.2349 38.7705H65.0233L64.6008 30.7654H60.9175Z" fill="white"/>
<path d="M68.5812 30.7656L65.8242 38.7707H68.431L68.7847 37.6504H71.2788L71.6324 38.7707H74.4583L71.7013 30.7656H68.5812ZM69.3573 35.8197L70.0333 33.7042L70.6967 35.8197H69.3573Z" fill="white"/>
<path d="M79.2975 36.5736C78.3148 36.5736 77.6733 36.0134 77.6733 34.7773C77.6733 33.5412 78.3023 32.8558 79.2756 32.8558C79.7794 32.8558 80.7839 33.0499 81.4036 33.2345L82.1233 31.1879C81.1282 30.7873 79.9609 30.5933 78.7592 30.5933C76.312 30.5933 74.7441 32.1611 74.7441 34.7804C74.7441 37.0211 75.9458 38.9426 78.7467 38.9426C80.3709 38.9426 81.2627 38.5545 82.2704 37.7878L81.2189 35.9008C80.5555 36.3013 79.9265 36.5736 79.2975 36.5736Z" fill="white"/>
<path d="M82.6133 33.0532H84.9353V38.7707H87.7362V33.0532H90.0457V30.7656H82.6133V33.0532Z" fill="white"/>
<path d="M94.0489 35.6131H96.831V33.7855H94.0489V32.5963H97.0344V30.7656H91.248V38.7707H97.1502V36.94H94.0489V35.6131Z" fill="white"/>
<path d="M102.959 30.7656H98.8652V38.7707H101.679V36.3798H102.971C104.63 36.3798 106 35.5098 106 33.5665C106 31.9079 104.608 30.7656 102.959 30.7656ZM102.135 34.6649H101.679V32.5932H102.135C102.846 32.5932 103.187 32.9124 103.187 33.5665C103.187 34.2299 102.846 34.6649 102.135 34.6649Z" fill="white"/>
</g>
<defs>
<clipPath id="clip0_2094_73">
<rect width="106" height="39.4308" fill="white"/>
</clipPath>
</defs>
</svg>